<svg xmlns="http://www.w3.org/2000/svg" viewBox="0 0 512 512">
  <defs>
    <linearGradient id="grad1" x1="0%" y1="0%" x2="100%" y2="100%">
      <stop offset="0%" style="stop-color:#FFF0F5;stop-opacity:1" />
      <stop offset="100%" style="stop-color:#FFC1E3;stop-opacity:1" />
    </linearGradient>
    <filter id="glow" x="-20%" y="-20%" width="140%" height="140%">
      <feGaussianBlur stdDeviation="15" result="blur" />
      <feComposite in="SourceGraphic" in2="blur" operator="over" />
    </filter>
  </defs>
  <rect width="100%" height="100%" rx="100" fill="url(#grad1)" />
  <!-- Lotus Shape -->
  <g transform="translate(256, 256) scale(1.2)" filter="url(#glow)">
    <path d="M0,-120 C40,-80 80,-40 80,0 C80,40 40,80 0,120 C-40,80 -80,40 -80,0 C-80,-40 -40,-80 0,-120" fill="#E91E63" opacity="0.8" />
    <path d="M0,-100 C60,-60 100,-20 100,20 C100,60 60,100 0,140 C-60,100 -100,60 -100,20 C-100,-20 -60,-60 0,-100" fill="#D81B60" opacity="0.6" transform="rotate(45)" />
    <path d="M0,-100 C60,-60 100,-20 100,20 C100,60 60,100 0,140 C-60,100 -100,60 -100,20 C-100,-20 -60,-60 0,-100" fill="#D81B60" opacity="0.6" transform="rotate(-45)" />
    <!-- Center symbol placeholder -->
    <circle cx="0" cy="0" r="30" fill="white" opacity="0.9" />
    <text x="0" y="10" font-family="Arial" font-size="40" text-anchor="middle" fill="#E91E63" font-weight="bold">ॐ</text>
  </g>
</svg>
